<mxfile host="65bd71144e">
    <diagram id="2gG1aso1CCN3E3-dKBOI" name="Page-1">
        <mxGraphModel dx="734" dy="449" grid="1" gridSize="10" guides="1" tooltips="1" connect="1" arrows="1" fold="1" page="1" pageScale="1" pageWidth="850" pageHeight="1100" math="0" shadow="0">
            <root>
                <mxCell id="0"/>
                <mxCell id="1" parent="0"/>
                <mxCell id="6" value="MemoryService" style="html=1;" parent="1" vertex="1">
                    <mxGeometry x="360" y="230" width="110" height="40" as="geometry"/>
                </mxCell>
                <mxCell id="7" value="MemoryReaderService" style="html=1;" parent="1" vertex="1">
                    <mxGeometry x="180" y="321" width="130" height="50" as="geometry"/>
                </mxCell>
                <mxCell id="8" value="MemoryWriterService" style="html=1;" parent="1" vertex="1">
                    <mxGeometry x="520" y="321" width="130" height="50" as="geometry"/>
                </mxCell>
                <mxCell id="10" value="1" style="endArrow=open;html=1;endSize=12;startArrow=diamondThin;startSize=14;startFill=1;edgeStyle=orthogonalEdgeStyle;align=left;verticalAlign=bottom;exitX=1;exitY=0.5;exitDx=0;exitDy=0;entryX=1;entryY=0.5;entryDx=0;entryDy=0;" parent="1" source="8" target="11" edge="1">
                    <mxGeometry x="-0.9584" y="16" relative="1" as="geometry">
                        <mxPoint x="360" y="221" as="sourcePoint"/>
                        <mxPoint x="470" y="250" as="targetPoint"/>
                        <Array as="points">
                            <mxPoint x="690" y="346"/>
                            <mxPoint x="690" y="135"/>
                        </Array>
                        <mxPoint as="offset"/>
                    </mxGeometry>
                </mxCell>
                <mxCell id="11" value="«abstract»&lt;br&gt;&lt;b&gt;IStorage&lt;/b&gt;" style="html=1;" parent="1" vertex="1">
                    <mxGeometry x="360" y="110" width="110" height="50" as="geometry"/>
                </mxCell>
                <mxCell id="20" value="1" style="endArrow=open;html=1;endSize=12;startArrow=diamondThin;startSize=14;startFill=1;edgeStyle=orthogonalEdgeStyle;align=left;verticalAlign=bottom;exitX=0;exitY=0.5;exitDx=0;exitDy=0;entryX=0;entryY=0.5;entryDx=0;entryDy=0;" parent="1" source="7" target="11" edge="1">
                    <mxGeometry x="-0.9132" y="-16" relative="1" as="geometry">
                        <mxPoint x="630" y="326" as="sourcePoint"/>
                        <mxPoint x="360" y="130" as="targetPoint"/>
                        <Array as="points">
                            <mxPoint x="140" y="346"/>
                            <mxPoint x="140" y="135"/>
                        </Array>
                        <mxPoint as="offset"/>
                    </mxGeometry>
                </mxCell>
                <mxCell id="21" value="Use" style="endArrow=open;endSize=12;dashed=1;html=1;entryX=1;entryY=0;entryDx=0;entryDy=0;exitX=0;exitY=1;exitDx=0;exitDy=0;" parent="1" source="6" target="7" edge="1">
                    <mxGeometry width="160" relative="1" as="geometry">
                        <mxPoint x="310" y="325" as="sourcePoint"/>
                        <mxPoint x="380" y="325" as="targetPoint"/>
                    </mxGeometry>
                </mxCell>
                <mxCell id="22" value="Use" style="endArrow=open;endSize=12;dashed=1;html=1;entryX=0;entryY=0;entryDx=0;entryDy=0;exitX=1;exitY=1;exitDx=0;exitDy=0;" parent="1" source="6" target="8" edge="1">
                    <mxGeometry width="160" relative="1" as="geometry">
                        <mxPoint x="370" y="140" as="sourcePoint"/>
                        <mxPoint x="250" y="331" as="targetPoint"/>
                    </mxGeometry>
                </mxCell>
                <mxCell id="23" value="Extends" style="endArrow=block;endSize=16;endFill=0;html=1;entryX=0.5;entryY=1;entryDx=0;entryDy=0;exitX=0.5;exitY=0;exitDx=0;exitDy=0;" edge="1" parent="1" source="6" target="11">
                    <mxGeometry width="160" relative="1" as="geometry">
                        <mxPoint x="230" y="210" as="sourcePoint"/>
                        <mxPoint x="390" y="210" as="targetPoint"/>
                    </mxGeometry>
                </mxCell>
                <mxCell id="24" value="storage" style="html=1;" vertex="1" parent="1">
                    <mxGeometry x="300" y="10" width="100" height="30" as="geometry"/>
                </mxCell>
                <mxCell id="25" value="utils" style="html=1;" vertex="1" parent="1">
                    <mxGeometry x="430" y="10" width="100" height="30" as="geometry"/>
                </mxCell>
                <mxCell id="26" value="1" style="endArrow=open;html=1;endSize=12;startArrow=diamondThin;startSize=14;startFill=1;edgeStyle=orthogonalEdgeStyle;align=left;verticalAlign=bottom;exitX=0.75;exitY=0;exitDx=0;exitDy=0;entryX=0.5;entryY=1;entryDx=0;entryDy=0;" edge="1" parent="1" source="11" target="25">
                    <mxGeometry x="-0.8431" y="-17" relative="1" as="geometry">
                        <mxPoint x="190" y="356" as="sourcePoint"/>
                        <mxPoint x="370" y="260" as="targetPoint"/>
                        <Array as="points">
                            <mxPoint x="443" y="70"/>
                            <mxPoint x="480" y="70"/>
                        </Array>
                        <mxPoint x="1" as="offset"/>
                    </mxGeometry>
                </mxCell>
                <mxCell id="27" value="1" style="endArrow=open;html=1;endSize=12;startArrow=diamondThin;startSize=14;startFill=1;edgeStyle=orthogonalEdgeStyle;align=left;verticalAlign=bottom;entryX=0.5;entryY=1;entryDx=0;entryDy=0;exitX=0.358;exitY=-0.007;exitDx=0;exitDy=0;exitPerimeter=0;" edge="1" parent="1" source="11" target="24">
                    <mxGeometry x="-0.9259" y="20" relative="1" as="geometry">
                        <mxPoint x="400" y="105" as="sourcePoint"/>
                        <mxPoint x="550" y="195" as="targetPoint"/>
                        <Array as="points">
                            <mxPoint x="399" y="70"/>
                            <mxPoint x="350" y="70"/>
                        </Array>
                        <mxPoint as="offset"/>
                    </mxGeometry>
                </mxCell>
            </root>
        </mxGraphModel>
    </diagram>
</mxfile>